<?xml version="1.0" encoding="UTF-8"?>
<svg width="700" height="700" version="1.1" viewBox="0 0 185.2 185.2" xmlns="http://www.w3.org/2000/svg">
 <path d="m73.59 8.075c-15.69 1.917-29.31 5.876-40.14 12.07-10.84 6.191-20.48 15.78-20.74 29.31v86.79c7.93e-4 7.712 6.237 13.97 13.95 14l23.29 0.0811v12.27c2.33e-4 6.601 4.611 12.3 11.06 13.69 29.73 6.369 63.26 4.046 87.52-7.659 13.92-6.713 25.2-17.39 25.14-32.22-8.8e-4 -28.83-0.0535-57.64 0-86.43 0.0206-11.1-6.927-20.41-15.84-26.72-15.66-11.08-39.37-16.4-62.59-16.4-10.04 0-15.86 0.5117-21.66 1.221zm78.99 22.61c7.224 5.112 11.67 11.77 11.98 18.66v87.1c0.0392 9.762-7.691 18.06-19.98 23.99-21.43 10.33-53.97 12.89-81.67 6.958-2.259-0.4841-3.873-2.481-3.873-4.791v-21.33l-32.36-0.118c-2.699-0.0106-4.874-2.201-4.874-4.9v-86.92c0.3135-8.806 6.907-16 16.15-21.28 9.351-5.341 21.97-9.133 36.73-10.94 6.458-0.7894 12.99-1.265 20.8-1.149 23.35 0.3448 44.02 5.479 57.09 14.73zm-61.1-4.841c-5.201 0.03739-10.44 0.356-15.6 0.987-13.77 1.682-25.31 5.293-33.06 9.72-4.749 2.713-7.69 5.562-9.407 8.296l59.79 0.2187c4.49 0.01752 6.594 5.563 3.245 8.554l-21.66 19.33c23.36 2.996 49.46-0.1228 65.53-7.87 9.182-4.429 13.47-9.573 14.28-13.46 0.1675-0.6589 0.21-1.354 0.1855-2.067-0.105-3.306-2.211-6.859-7.87-10.86-10.28-7.276-29.61-12.2-50.25-12.78zm-30.39 46.19 19.29-17.22-48.79-0.1786v33.46l27.44 0.09888 0.0023-12.24c3.07e-4 -1.635 0.8201-3.041 2.06-3.922zm93.68-4.411c-2.868 2.304-6.295 4.397-10.2 6.279-19.92 9.605-49.44 12.49-75.74 8.086v76.47c24.76 4.423 54.02 1.56 71.48-6.86 10.53-5.081 14.47-10.81 14.46-15.12zm-123.2 30.28v33.47l27.44 0.1007v-33.47z" color="#000000" color-rendering="auto" dominant-baseline="auto" fill="#37c8ab" image-rendering="auto" shape-rendering="auto" solid-color="#000000" style="font-feature-settings:normal;font-variant-alternates:normal;font-variant-caps:normal;font-variant-ligatures:normal;font-variant-numeric:normal;font-variant-position:normal;isolation:auto;mix-blend-mode:normal;paint-order:normal;shape-padding:0;text-decoration-color:#000000;text-decoration-line:none;text-decoration-style:solid;text-indent:0;text-orientation:mixed;text-transform:none;white-space:normal"/>
</svg>
