<?xml version="1.0" encoding="UTF-8"?>
<svg width="700" height="700" version="1.1" viewBox="0 0 185.21 185.21" xmlns="http://www.w3.org/2000/svg">
 <g transform="translate(-8.41 -18.635)" fill="none" stroke="#1ecfb6" stroke-width="7">
  <path d="m176.44 62.171v98.127"/>
  <g stroke-linecap="round" stroke-linejoin="round">
   <path d="m67.853 160.18-42.22-0.15339m150.71-1.4423c1.0141 8.5584-5.6076 17.188-19.439 23.859-22.564 10.882-58.871 13.925-89.04 7.4636"/>
   <path d="m25.633 61.897a75.406 32.968 0 0 1 55.103-31.476 75.406 32.968 0 0 1 84.449 14.421 75.406 32.968 0 0 1-8.2812 39.472 75.406 32.968 0 0 1-89.04 7.4636l33.174-29.606z"/>
   <path d="m67.848 111.11-42.214-0.15337m150.81 0.28657c-0.0113 7.9826-6.6398 15.908-19.54 22.13-22.564 10.882-58.871 13.925-89.04 7.4636"/>
  </g>
  <path d="m25.633 61.897v98.127"/>
  <path d="m67.864 91.777v98.127"/>
 </g>
</svg>
