<?xml version="1.0" encoding="UTF-8"?>
<svg width="700" height="700" version="1.1" viewBox="0 0 185.21 185.21" xmlns="http://www.w3.org/2000/svg">
 <g id="" transform="translate(.24053 -151.64)">
  <path d="m16.958 195.04c.27917-14.687 22.748-27.659 55.103-31.613 32.354-3.9542 66.79 1.9261 84.449 14.421s14.282 28.59-8.2812 39.472-58.871 13.925-89.04 7.4636l33.174-29.743z" fill="#afe9dd"/>
  <path d="m167.77 195.18c0 18.207-33.761 32.968-75.406 32.968-11.919 0-23.153-1.2389-33.174-3.3915v49.057c10.022 2.1537 21.252 3.3982 33.174 3.3982 41.646 0 75.406-14.76 75.406-32.968z" fill="#5fd3bc"/>
  <path d="m16.958 195.04v49.053h42.23v-19.31l33.174-29.743z" fill="#d2dcda"/>
  <path d="m59.188 244.1h-42.23v49.061h42.23z" fill="#b7c8c4"/>
  <path d="m59.188 273.81v49.108c10.011 2.1477 21.27 3.3543 33.174 3.3543 41.646 0 75.406-14.76 75.406-32.968v-49.064c0 18.207-33.761 32.968-75.406 32.968-11.922 0-23.151-1.2445-33.174-3.3982z" fill="#2ca089"/>
 </g>
</svg>
