<?xml version="1.0" encoding="UTF-8"?>
<svg width="700" height="700" version="1.1" viewBox="0 0 185.21 185.21" xmlns="http://www.w3.org/2000/svg">
 <g id="" transform="translate(.24053 -151.64)" stroke="#e1e1e1" stroke-linecap="round" stroke-linejoin="round" stroke-width="4.7625">
  <path d="m16.958 195.04v49.053h42.23v-19.31l33.174-29.743z" fill="#c7d4d1"/>
  <path d="m16.958 195.04c0.27917-14.687 22.748-27.659 55.103-31.613 32.354-3.9542 66.79 1.9261 84.449 14.421s14.282 28.59-8.2812 39.472-58.871 13.925-89.04 7.4636l33.174-29.743z" fill="#87decd"/>
  <path d="m167.77 195.18c0 18.207-33.761 32.968-75.406 32.968-11.919 0-23.153-1.2389-33.174-3.3915v49.057c10.022 2.1537 21.252 3.3982 33.174 3.3982 41.646 0 75.406-14.76 75.406-32.968z" fill="#37c8ab"/>
  <path d="m59.188 244.1h-42.23v49.061h42.23z" fill="#b7c8c4"/>
  <path d="m59.188 273.81v49.108c10.011 2.1477 21.27 3.3543 33.174 3.3543 41.646 0 75.406-14.76 75.406-32.968v-49.064c0 18.207-33.761 32.968-75.406 32.968-11.922 0-23.151-1.2445-33.174-3.3982z" fill="#2ca089"/>
 </g>
 <g transform="matrix(.99999 0 0 .99999 -8.4346 -18.658)" fill="none" stroke="#8be9d4" stroke-linecap="round" stroke-linejoin="round" stroke-width="4.7626">
  <g stroke="#8be9d4" stroke-width="4.7626">
   <path d="m176.44 62.171v98.127"/>
   <path d="m67.853 160.18-42.22-0.15339m150.81 0.21115c0.0305 8.0081-6.5992 15.964-19.54 22.206-22.564 10.882-58.871 13.925-89.04 7.4636"/>
   <path d="m25.633 61.897c0.28005-14.687 22.749-27.522 55.103-31.476 32.354-3.9543 66.79 1.9261 84.449 14.421 17.659 12.495 14.282 28.59-8.2812 39.472-22.564 10.882-58.871 13.925-89.04 7.4636l33.174-29.606z" stroke-linejoin="round"/>
   <path d="m67.848 111.11-42.214-0.15337m150.81 0.28657c-0.0113 7.9826-6.6398 15.908-19.54 22.13-22.564 10.882-58.871 13.925-89.04 7.4636"/>
   <path d="m25.633 61.897v98.127"/>
   <path d="m67.864 91.777v98.127"/>
  </g>
 </g>
</svg>
